<svg xmlns="http://www.w3.org/2000/svg" version="1.1" xmlns:xlink="http://www.w3.org/1999/xlink" xmlns:svgjs="http://svgjs.dev/svgjs" viewBox="0 0 7.335818853808443 7.840327951239378"><g transform="matrix(1,0,0,1,0.6319200470214095,6.14040790421797)"><g><path d=" M 0.7845 -2.220446049250313e-16 L 0.7845 0.7004999999999999 Q 0.7845 0.8789999999999999 0.68775 0.9734999999999999 Q 0.591 1.0679999999999998 0.4215 1.0679999999999998 Q 0.2415 1.0679999999999998 0.13425 0.9674999999999999 Q 0.027 0.8669999999999999 0.027 0.6779999999999999 L 0.318 0.6779999999999999 Q 0.3195 0.8024999999999999 0.40950000000000003 0.8024999999999999 Q 0.4905 0.8024999999999999 0.4905 0.7004999999999999 L 0.4905 -2.220446049250313e-16 L 0.7845 -2.220446049250313e-16 M 1.6439765625 0.8849999999999999 L 1.2689765625 0.8849999999999999 L 1.2119765625 1.0574999999999999 L 0.9029765625 1.0574999999999999 L 1.2884765625 -2.220446049250313e-16 L 1.6274765625 -2.220446049250313e-16 L 2.0114765625 1.0574999999999999 L 1.7009765625000002 1.0574999999999999 L 1.6439765625 0.8849999999999999 M 1.5704765625000001 0.6599999999999999 L 1.4564765625 0.31799999999999984 L 1.3439765625 0.6599999999999999 L 1.5704765625000001 0.6599999999999999 M 2.65798388671875 1.0574999999999999 L 2.4479838867187502 0.6674999999999999 L 2.4164838867187504 0.6674999999999999 L 2.4164838867187504 1.0574999999999999 L 2.1224838867187503 1.0574999999999999 L 2.1224838867187503 -2.220446049250313e-16 L 2.58598388671875 -2.220446049250313e-16 Q 2.71348388671875 -2.220446049250313e-16 2.8019838867187503 0.0442499999999999 Q 2.89048388671875 0.08849999999999991 2.9354838867187505 0.16574999999999984 Q 2.9804838867187504 0.24299999999999988 2.9804838867187504 0.33899999999999986 Q 2.9804838867187504 0.44699999999999984 2.9212338867187504 0.5287499999999998 Q 2.8619838867187504 0.6104999999999998 2.7479838867187505 0.6449999999999998 L 2.98648388671875 1.0574999999999999 L 2.65798388671875 1.0574999999999999 M 2.4164838867187504 0.4664999999999999 L 2.56198388671875 0.4664999999999999 Q 2.62198388671875 0.4664999999999999 2.6519838867187504 0.43799999999999983 Q 2.68198388671875 0.40949999999999986 2.68198388671875 0.3554999999999998 Q 2.68198388671875 0.3044999999999999 2.6512338867187504 0.2752499999999999 Q 2.62048388671875 0.24599999999999989 2.56198388671875 0.24599999999999989 L 2.4164838867187504 0.24599999999999989 L 2.4164838867187504 0.4664999999999999 M 3.4230000000000005 -2.220446049250313e-16 L 3.4230000000000005 1.0574999999999999 L 3.1290000000000004 1.0574999999999999 L 3.1290000000000004 -2.220446049250313e-16 L 3.4230000000000005 -2.220446049250313e-16 M 4.274975097656251 0.8849999999999999 L 3.8999750976562506 0.8849999999999999 L 3.8429750976562507 1.0574999999999999 L 3.5339750976562505 1.0574999999999999 L 3.9194750976562505 -2.220446049250313e-16 L 4.258475097656251 -2.220446049250313e-16 L 4.64247509765625 1.0574999999999999 L 4.331975097656251 1.0574999999999999 L 4.274975097656251 0.8849999999999999 M 4.2014750976562505 0.6599999999999999 L 4.087475097656251 0.31799999999999984 L 3.9749750976562503 0.6599999999999999 L 4.2014750976562505 0.6599999999999999 M 5.987982421875001 -2.220446049250313e-16 L 5.987982421875001 1.0574999999999999 L 5.693982421875001 1.0574999999999999 L 5.693982421875001 0.47399999999999987 L 5.494482421875001 1.0574999999999999 L 5.248482421875001 1.0574999999999999 L 5.047482421875001 0.4694999999999999 L 5.047482421875001 1.0574999999999999 L 4.753482421875001 1.0574999999999999 L 4.753482421875001 -2.220446049250313e-16 L 5.108982421875001 -2.220446049250313e-16 L 5.374482421875001 0.6869999999999998 L 5.633982421875001 -2.220446049250313e-16 L 5.987982421875001 -2.220446049250313e-16" fill="#171f69" fill-rule="nonzero"></path></g><g></g><g clip-path="url(#SvgjsClipPath1001)"><g clip-path="url(#SvgjsClipPath10008f1a826f-115a-4f1d-9519-eb18bae778fb)"><path d=" M 0.4222202614024103 -2.1784560989747086 C 0.4887301884998296 -1.931554298516637 0.7426237408573804 -1.785153341053309 0.989629965724345 -1.8512743993397098 C 1.2365628233455692 -1.9178058007229914 1.38318517995613 -2.171511900925548 1.3175485610792217 -2.41868410366163 C 1.2510386339817952 -2.665585904119716 0.9971450816242369 -2.8119868615830295 0.7501388567572796 -2.745865803296643 C 0.6313177863114025 -2.714256417367539 0.5299603341530424 -2.6366610943714632 0.4684378610189044 -2.5302064779371327 C 0.4069153878847739 -2.423751861502787 0.3902860602896553 -2.2971902847006898 0.4222202614024103 -2.1784560989747086 Z" fill="#1a76ad" transform="matrix(1,0,0,1,0,0)" fill-rule="evenodd"></path></g><g clip-path="url(#SvgjsClipPath10008f1a826f-115a-4f1d-9519-eb18bae778fb)"><path d=" M 2.1215017914886265 -2.6338576538720457 C 2.1543515316672344 -2.521592394899112 2.2708686947980308 -2.456133314488556 2.3838366677725324 -2.486478509892303 C 2.496101926745466 -2.5193282500709255 2.5615610071560297 -2.63584541320173 2.531215811752268 -2.748813386176231 C 2.4986960753423584 -2.860977600173078 2.3824010187335727 -2.926495941924523 2.269617831188233 -2.896192530155944 C 2.1570554494041594 -2.8636597670427704 2.0912137975873577 -2.7470447021334157 2.1215017914886265 -2.6338576538720457 Z" fill="#1a76ad" transform="matrix(1,0,0,1,0,0)" fill-rule="evenodd"></path></g><g clip-path="url(#SvgjsClipPath10008f1a826f-115a-4f1d-9519-eb18bae778fb)"><path d=" M 1.34333991127568 -2.87924392859828 C 1.3431441959011754 -2.789410785014765 1.3786931616990894 -2.703189923550196 1.4421457793510442 -2.6395990649011702 C 1.5055983970029838 -2.5760082062521596 1.5917416899280665 -2.5402716842470814 1.6815750467091524 -2.5402718974449146 C 1.7714084034902382 -2.5402716842470814 1.857551696415321 -2.5760082062521596 1.921004314067268 -2.6395990649011702 C 1.9844569317192227 -2.703189923550196 2.0200058975171293 -2.789410785014765 2.019810182142624 -2.87924392859828 C 2.0198101834793443 -2.9689494589182552 1.9841747995914625 -3.0549808896266826 1.920743408173595 -3.1184122829349565 C 1.8573120167557202 -3.181843676243231 1.771280587109314 -3.2174790626950394 1.6815750517492454 -3.217479064031752 C 1.5918695113490913 -3.217479064031752 1.5058380811716707 -3.1818436788619104 1.4424066888085962 -3.118412286498836 C 1.3789752964455215 -3.054980894135776 1.34333991127568 -2.968949463958348 1.34333991127568 -2.87924392859828 Z" fill="#1a76ad" transform="matrix(1,0,0,1,0,0)" fill-rule="evenodd"></path></g><g clip-path="url(#SvgjsClipPath10008f1a826f-115a-4f1d-9519-eb18bae778fb)"><path d=" M 3.7360403137865053 -0.2654748101178779 C 3.9829421142445764 -0.3319847372153122 4.129343071707897 -0.5858782895728627 4.0632220134214965 -0.8328845144398276 C 4.031612627492399 -0.9517055848856968 3.954017304496331 -1.0530630370440646 3.8475626880619855 -1.1145855101781956 C 3.7411080716276475 -1.1761079833123258 3.61454649482555 -1.192737310907452 3.4958123090995614 -1.1608031097946894 C 3.24891050864149 -1.0942931826972702 3.1025095511781693 -0.8403996303397268 3.16863060946457 -0.5933934054727619 C 3.2351620108478443 -0.3464605478515379 3.488868111050401 -0.19983819124097657 3.7360403137864977 -0.2654748101178779 Z" fill="#095791" transform="matrix(1,0,0,1,0,0)" fill-rule="evenodd"></path></g><g clip-path="url(#SvgjsClipPath10008f1a826f-115a-4f1d-9519-eb18bae778fb)"><path d=" M 3.2806387588891606 -1.9640194444842005 C 3.393068250906773 -1.9962037343121812 3.458745672152073 -2.112781157022598 3.428017902868888 -2.225617425048221 C 3.397449518858268 -2.339536122871411 3.280365835575067 -2.407147827302548 3.1664199223048684 -2.37668104762743 C 3.052469517278571 -2.3460914255608825 2.9846364270419934 -2.229194595298834 3.014619404005766 -2.115083067063395 C 3.0292362104617045 -2.0593788607022145 3.0657172298367112 -2.0119320913149537 3.1157960140729934 -1.98349400054366 C 3.1658747983092757 -1.9550559097723514 3.2253117705844896 -1.9480340135410659 3.280638758889153 -1.9640194444841859 Z" fill="#095791" transform="matrix(1,0,0,1,0,0)" fill-rule="evenodd"></path></g><g clip-path="url(#SvgjsClipPath10008f1a826f-115a-4f1d-9519-eb18bae778fb)"><path d=" M 3.035989379882812 -1.1865944599911629 C 3.222623353917989 -1.1869997469263005 3.3738192283811315 -1.33819562138945 3.374224515316284 -1.5248295954246198 C 3.3742249570117027 -1.7117512803279955 3.2229106231305775 -1.8633952750810403 3.035989379898221 -1.86380162657797 C 2.848780296457659 -1.863801626577985 2.697017348729462 -1.7120386788497952 2.697017348729462 -1.5248295954246198 C 2.6974237002178802 -1.3379083521922635 2.849067694964035 -1.1865940183042412 3.0359893798828046 -1.1865944599911629 Z" fill="#095791" transform="matrix(1,0,0,1,0,0)" fill-rule="evenodd"></path></g><g clip-path="url(#SvgjsClipPath10008f1a826f-115a-4f1d-9519-eb18bae778fb)"><path d=" M 1.6830488381489463 -0.5359155393206771 C 1.9044943464811117 -0.4085093185738078 2.1872789236060193 -0.4843140420455203 2.315305365821966 -0.7054015548973673 C 2.3769301334241626 -0.8117800688568861 2.393693469303212 -0.9383075491445974 2.3618962285594245 -1.0570633308789699 C 2.330098987815645 -1.1758191126133273 2.2523547891884173 -1.2770418979808422 2.145819350245291 -1.33839497829028 C 2.0395070792895247 -1.3997856431253535 1.9131579894350714 -1.4164179551693774 1.7945800684885698 -1.3846313330042355 C 1.676002147542068 -1.3528447108390926 1.5749135874090772 -1.2752442641830406 1.5135628225722637 -1.1689089627135898 C 1.4519380549700747 -1.062530448754055 1.435174719091025 -0.9360029684663589 1.4669719598348125 -0.8172471867319873 C 1.4987692005785926 -0.6984914049976148 1.5765133992058276 -0.5972686196300998 1.6830488381489463 -0.5359155393206692 Z" fill="#1a76ad" transform="matrix(1,0,0,1,0,0)" fill-rule="evenodd"></path></g><g clip-path="url(#SvgjsClipPath10008f1a826f-115a-4f1d-9519-eb18bae778fb)"><path d=" M 2.5629023277079024 -2.059815888071027 C 2.6122236827455723 -2.0305602340971194 2.6712336363792013 -2.02235477979366 2.7266656524392867 -2.037044264049575 C 2.7820976684993797 -2.0517337483055043 2.8292999753590347 -2.088085451639689 2.857660615667358 -2.1379268343802655 C 2.8869162696412585 -2.1872481894179425 2.895121723944725 -2.246258143051572 2.880432239688803 -2.3016901591116574 C 2.8657427554328807 -2.3571221751717575 2.8293910520986887 -2.404324482031405 2.7795496693581048 -2.4326851223397212 C 2.730328346630041 -2.4623556521357934 2.6711779746724007 -2.470794681142202 2.6156231308193347 -2.4560726475211414 C 2.560068286966261 -2.441350613900066 2.5128596610104865 -2.4047264504466077 2.484791381398656 -2.354574176030483 C 2.455329489469716 -2.3053023090772062 2.447008038244401 -2.246222659708599 2.4617136629537986 -2.190729736276902 C 2.4764192876632034 -2.1352368128451755 2.5129062800978703 -2.088031401046464 2.5629023277079024 -2.059815888071027 Z" fill="#095791" transform="matrix(1,0,0,1,0,0)" fill-rule="evenodd"></path></g><g clip-path="url(#SvgjsClipPath10008f1a826f-115a-4f1d-9519-eb18bae778fb)"><path d=" M 1.8392707307674607 -1.682525279482928 C 1.9026021784584473 -1.618940772118961 1.988650081018799 -1.5831980177553748 2.078393391874557 -1.5831980177553748 C 2.1681367027303224 -1.5831980177553748 2.254184605290674 -1.618940772118961 2.3175160529816607 -1.682525279482928 C 2.4495441722734874 -1.814603855602265 2.4495441722734874 -2.0286920255777985 2.3175160529816607 -2.160770601697136 C 2.254184605290674 -2.224355109061103 2.1681367027303224 -2.260097863424689 2.078393391874557 -2.260097863424689 C 1.988650081018799 -2.260097863424689 1.9026021784584473 -2.224355109061103 1.8392707307674607 -2.160770601697136 C 1.7756862234034936 -2.0974391540061417 1.7399434690398998 -2.0113912514457897 1.7399434690398998 -1.9216479405900246 C 1.7399434690398998 -1.8319046297342738 1.7756862234034936 -1.7458567271739223 1.8392707307674607 -1.682525279482928 Z" fill="#1a76ad" transform="matrix(1,0,0,1,0,0)" fill-rule="evenodd"></path></g><g clip-path="url(#SvgjsClipPath10008f1a826f-115a-4f1d-9519-eb18bae778fb)"><path d=" M 5.378580873440529 -1.5263033868644214 C 5.506052971884102 -1.747970524120921 5.430275586889345 -2.0309825837317708 5.209094857863839 -2.1592968102573344 C 4.987427720607324 -2.2867689087009064 4.7044156609964825 -2.2109915237061504 4.576101434470926 -1.9898107946806443 C 4.448629336027362 -1.7681436574241296 4.5244067210221175 -1.4851315978132948 4.745587450047632 -1.3568173712877307 C 4.851965964007143 -1.2951926036855346 4.9784934442948545 -1.2784292678064926 5.097249226029227 -1.3102265085502802 C 5.2160050077635915 -1.3420237492940528 5.3172277931311065 -1.4197679479212875 5.378580873440544 -1.5263033868644063 Z" fill="#095791" transform="matrix(1,0,0,1,0,0)" fill-rule="evenodd"></path></g><g clip-path="url(#SvgjsClipPath10008f1a826f-115a-4f1d-9519-eb18bae778fb)"><path d=" M 3.856154316129981 -2.4061568764233696 C 3.885409970103881 -2.455478231461047 3.8936154244073475 -2.514488185094676 3.8789259401514253 -2.5699202011547615 C 3.864236455895503 -2.625352217214847 3.827884752561311 -2.6725545240745094 3.778043369820727 -2.7009151643828258 C 3.728722014783065 -2.7301708183567333 3.6697120611494283 -2.7383762726601923 3.614280045089343 -2.7236867884042777 C 3.55884802902925 -2.708997304148348 3.511645722169595 -2.6726456008141635 3.483285081861279 -2.622804218073572 C 3.4542333140074826 -2.5734344033107046 3.446142312070778 -2.5144931421763546 3.460815917763679 -2.4591210452220187 C 3.47548952345658 -2.4037489482676833 3.5117077763724516 -2.3565496396692707 3.561396028170525 -2.3280459301141314 C 3.6107658429333997 -2.2989941622603274 3.6697071040677423 -2.2909031603236234 3.725079201022078 -2.305576766016524 C 3.7804512979764286 -2.3202503717094247 3.8276506065748337 -2.3564686246252964 3.856154316129981 -2.4061568764233696 Z" fill="#33a4d8" transform="matrix(1,0,0,1,0,0)" fill-rule="evenodd"></path></g><g clip-path="url(#SvgjsClipPath10008f1a826f-115a-4f1d-9519-eb18bae778fb)"><path d=" M 4.232708028998179 -1.682525279482928 C 4.364736148290005 -1.814603855602265 4.364736148290005 -2.0286920255777985 4.232708028998179 -2.160770601697136 C 4.169250578973362 -2.2243996674807565 4.083080739091687 -2.2601605664291067 3.9932169200311285 -2.2601605664291067 C 3.9033531009705698 -2.2601605664291067 3.8171832610888954 -2.2243996674807565 3.7537258110640703 -2.160770601697136 C 3.6901413037001105 -2.0974391540061417 3.654398549336517 -2.0113912514457897 3.654398549336517 -1.9216479405900246 C 3.654398549336517 -1.8319046297342738 3.6901413037001105 -1.7458567271739223 3.7537258110640703 -1.682525279482928 C 3.8171832610888954 -1.6188962136992924 3.9033531009705698 -1.5831353147509573 3.9932169200311285 -1.5831353147509573 C 4.083080739091687 -1.5831353147509573 4.169250578973362 -1.6188962136992924 4.232708028998179 -1.682525279482928 Z" fill="#095791" transform="matrix(1,0,0,1,0,0)" fill-rule="evenodd"></path></g><g clip-path="url(#SvgjsClipPath10008f1a826f-115a-4f1d-9519-eb18bae778fb)"><path d=" M 4.3881930258967925 -5.221835422156004 C 4.1665829942431145 -5.349742529827198 3.883246996873459 -5.273878409460473 3.7551996025038794 -5.052349406579314 C 3.627415998242766 -4.830546432577238 3.703625999655193 -4.547150799619375 3.9254225138004553 -4.419355983186416 C 4.031824147187741 -4.358026434152418 4.158240474553926 -4.341506266669832 4.2768290238203175 -4.373433953010778 C 4.395417573086716 -4.4053616393517405 4.4964516369417975 -4.48311845062467 4.557679041473475 -4.589578894482985 C 4.619269567162361 -4.695845079562809 4.636013420008035 -4.822261415113915 4.604211212961877 -4.940897474442639 C 4.57240900591572 -5.059533533771347 4.494678338712475 -5.160624531780185 4.3881930258968005 -5.221835422156004 Z" fill="#33a4d8" transform="matrix(1,0,0,1,0,0)" fill-rule="evenodd"></path></g><g clip-path="url(#SvgjsClipPath10008f1a826f-115a-4f1d-9519-eb18bae778fb)"><path d=" M 3.5083395363378367 -3.6986719691255474 C 3.458879903676368 -3.7276631323740523 3.399870852648666 -3.7356420247882873 3.3444879933244422 -3.7208271099190546 C 3.2891051340002266 -3.706012195049837 3.241960733341391 -3.669637254309456 3.2135812483783806 -3.6198241270964004 C 3.18432559440448 -3.5705027720587235 3.1761201401010135 -3.5114928184250944 3.1908096243569357 -3.456060802365009 C 3.205499108612858 -3.4006287863049236 3.24185081194705 -3.353426479445261 3.291692194687619 -3.3250658391369448 C 3.3410620094505017 -3.296014071283141 3.4000032705848517 -3.287923069346452 3.455375367539187 -3.3025966750393523 C 3.5107474644935306 -3.317270280732238 3.557946773091943 -3.353488533648125 3.5864504826470824 -3.403176785446198 C 3.6157390059794485 -3.4526110239856074 3.623963062948179 -3.5117315027471356 3.609278716128768 -3.5672826638281316 C 3.594594369309342 -3.622833824909142 3.55823020798938 -3.670167891853714 3.5083395363378367 -3.6986719691255474 Z" fill="#33a4d8" transform="matrix(1,0,0,1,0,0)" fill-rule="evenodd"></path></g><g clip-path="url(#SvgjsClipPath10008f1a826f-115a-4f1d-9519-eb18bae778fb)"><path d=" M 4.232708028998179 -4.075225681993754 C 4.169250578973362 -4.138854747777374 4.083080739091687 -4.174615646725724 3.9932169200311285 -4.174615646725724 C 3.9033531009705698 -4.174615646725724 3.8171832610888954 -4.138854747777374 3.7537258110640703 -4.075225681993754 C 3.6901413037001105 -4.011894234302759 3.654398549336517 -3.925846331742407 3.654398549336517 -3.836103020886642 C 3.654398549336517 -3.746359710030891 3.6901413037001105 -3.6603118074705394 3.7537258110640703 -3.596980359779545 C 3.8862241561488977 -3.4652720769165852 4.100209683913359 -3.4652720769165852 4.232708028998179 -3.596980359779545 C 4.364736148290005 -3.729058935898882 4.364736148290005 -3.9431471058744156 4.232708028998179 -4.075225681993754 Z" fill="#33a4d8" transform="matrix(1,0,0,1,0,0)" fill-rule="evenodd"></path></g><g clip-path="url(#SvgjsClipPath10008f1a826f-115a-4f1d-9519-eb18bae778fb)"><path d=" M 5.649021602643328 -3.579294862501973 C 5.582511675545901 -3.826196662960059 5.328618123188344 -3.9725976204233726 5.081611898321386 -3.9064765621369713 C 4.962846457012147 -3.8750326283742846 4.861494760480959 -3.797582132223833 4.7999605306527995 -3.691245451914056 C 4.738426300824633 -3.5849087716042645 4.721777128982809 -3.458443160386494 4.75369330296651 -3.3398037535349294 C 4.819876534226421 -3.0926036911544847 5.073873110404317 -2.94581346206465 5.321103007288444 -3.011885158180038 C 5.568303069668889 -3.0780683894399568 5.715093298758716 -3.3320649656178603 5.649021602643328 -3.5792948625019876 Z" fill="#33a4d8" transform="matrix(1,0,0,1,0,0)" fill-rule="evenodd"></path></g><g clip-path="url(#SvgjsClipPath10008f1a826f-115a-4f1d-9519-eb18bae778fb)"><path d=" M 3.9490031768372114 -3.1238933076046353 C 3.917158959609513 -3.236590796445851 3.8002944732041657 -3.3024299437164717 3.6874051962731986 -3.2712724515843634 C 3.574975704255586 -3.2390881617563827 3.5092982830102786 -3.122510739045966 3.540026052293471 -3.009674471020343 C 3.5718702695211695 -2.8969769821791274 3.688734755926509 -2.8311378349085214 3.8016240328574833 -2.862295327040615 C 3.9143215216987066 -2.894139544268314 3.9801606689693276 -3.011004030673653 3.949003176837219 -3.1238933076046203 Z" fill="#33a4d8" transform="matrix(1,0,0,1,0,0)" fill-rule="evenodd"></path></g><g clip-path="url(#SvgjsClipPath10008f1a826f-115a-4f1d-9519-eb18bae778fb)"><path d=" M 4.727901952770051 -2.87924392859828 C 4.727496665834913 -3.065877902633434 4.5763007913717635 -3.2170737770965987 4.389666817336594 -3.217479064031752 C 4.202745132417794 -3.2174795057186736 4.0511011376716475 -3.066165171830666 4.050694786183214 -2.87924392859828 C 4.050694788972848 -2.692034840122041 4.202457738962481 -2.540271894655288 4.38966682238765 -2.540271897444929 C 4.576588060568965 -2.540678248933355 4.72790239445698 -2.692322243679495 4.727901952770051 -2.87924392859828 Z" fill="#33a4d8" transform="matrix(1,0,0,1,0,0)" fill-rule="evenodd"></path></g><g clip-path="url(#SvgjsClipPath10008f1a826f-115a-4f1d-9519-eb18bae778fb)"><path d=" M 2.3352015502592334 -5.492276151358803 C 2.088299749801147 -5.425766224261384 1.9418987923378337 -5.1718726719038255 2.008019850624228 -4.924866447036869 C 2.039788532718396 -4.806181425915335 2.1174499156946673 -4.705001196703747 2.2238861150801377 -4.643627596019143 C 2.330322314465616 -4.582253995334524 2.4567957575719217 -4.565725311843945 2.5754295549461848 -4.597684747401885 C 2.694058951855996 -4.629288245533854 2.7952332904618644 -4.706804908573911 2.8566185763335823 -4.813123117662537 C 2.9180038622052997 -4.919441326751162 2.93455244144731 -5.045818636289987 2.902611254581176 -5.164357556003926 C 2.8364280233212495 -5.411557618384356 2.582431447143353 -5.558347847474192 2.3352015502592187 -5.492276151358803 Z" fill="#33a4d8" transform="matrix(1,0,0,1,0,0)" fill-rule="evenodd"></path></g><g clip-path="url(#SvgjsClipPath10008f1a826f-115a-4f1d-9519-eb18bae778fb)"><path d=" M 2.790603105156571 -3.7929946212725723 C 2.6783378461836524 -3.7601448810939644 2.6128787657730883 -3.6436277179631604 2.6432239611768504 -3.5306597449886734 C 2.6757436975867375 -3.418495530991812 2.792038754195523 -3.352977189240367 2.904821941740863 -3.383280601008946 C 3.018772346767175 -3.4138702230754787 3.086605437003753 -3.5307670533375273 3.0566224600399803 -3.644878581572951 C 3.041016027012486 -3.699814816706153 3.004210308546252 -3.7462933470924527 2.9543132984565736 -3.7740753388598396 C 2.9044162883669107 -3.801857330627212 2.845521550189028 -3.8086635420289023 2.7906031051565634 -3.7929946212725723 Z" fill="#33a4d8" transform="matrix(1,0,0,1,0,0)" fill-rule="evenodd"></path></g><g clip-path="url(#SvgjsClipPath10008f1a826f-115a-4f1d-9519-eb18bae778fb)"><path d=" M 3.035989379882812 -4.571156501485518 C 2.9461562362993052 -4.5713522168600385 2.8599353748347287 -4.5358032510621165 2.7963445161857106 -4.472350633410169 C 2.732753657536707 -4.408898015758222 2.6970171355316217 -4.32275472283314 2.6970173487294544 -4.232921366052061 C 2.697017135535358 -4.143088009256919 2.7327536575440154 -4.056944716333316 2.796344516195664 -3.9934920986840146 C 2.85993537484732 -3.9300394810346977 2.9461562363133686 -3.8944905152403777 3.0359893798968685 -3.8946862306186194 C 3.1256949152428732 -3.894686230618589 3.2117263454203013 -3.9303216157884306 3.2751577377833683 -3.993753008151505 C 3.338589130146443 -4.057184400514565 3.374224515316284 -4.143215830691993 3.374224515316284 -4.232921366052061 C 3.3742245166530043 -4.322626896372022 3.3385891327651227 -4.408658327080449 3.2751577413472552 -4.472089720388723 C 3.21172634992938 -4.535521113696998 3.1256949202829816 -4.571156500148806 3.0359893849229054 -4.571156501485518 Z" fill="#33a4d8" transform="matrix(1,0,0,1,0,0)" fill-rule="evenodd"></path></g><g clip-path="url(#SvgjsClipPath10008f1a826f-115a-4f1d-9519-eb18bae778fb)"><path d=" M 0.6926609906052019 -4.23144757461226 C 0.6310704649163235 -4.125181389532436 0.6143266120706496 -3.9987650539813293 0.6461288191167999 -3.8801289946526056 C 0.677931026162965 -3.761492935323897 0.7556616933662015 -3.6604019373150596 0.862147006181877 -3.5991910469392403 C 0.968525520141404 -3.5375662793370433 1.0950530004291152 -3.5208029434580013 1.2138087821634875 -3.552600184201789 C 1.332564563897852 -3.5843974249455615 1.4337873492653674 -3.662141623572796 1.4951404295748052 -3.7686770625159154 C 1.6225466503216817 -3.9901225708480883 1.5467419268499687 -4.272907147973003 1.3256544139981299 -4.40093359018895 C 1.2192759000386029 -4.462558357791131 1.0927484197508917 -4.4793216936701885 0.9739926380165196 -4.447524452926401 C 0.855236856282155 -4.415727212182613 0.7540140709146397 -4.3379830135553785 0.6926609906052019 -4.23144757461226 Z" fill="#33a4d8" transform="matrix(1,0,0,1,0,0)" fill-rule="evenodd"></path></g><g clip-path="url(#SvgjsClipPath10008f1a826f-115a-4f1d-9519-eb18bae778fb)"><path d=" M 2.216561339355552 -3.3523309807732047 C 2.1875095715017556 -3.302961166010322 2.179418569565059 -3.2440199048759872 2.194092175257952 -3.1886478079216363 C 2.208765780950853 -3.133275710967301 2.2449840338667246 -3.0860764023688882 2.294672285664798 -3.0575726928137485 C 2.3439936407024677 -3.028317038839841 2.4030035943361043 -3.020111584536382 2.458435610396182 -3.0348010687922966 C 2.513867626456275 -3.0494905530482264 2.5610699333159377 -3.085842256382411 2.589430573624254 -3.135683639122987 C 2.61848234147805 -3.1850534538858697 2.626573343414747 -3.2439947150202046 2.6118997377218536 -3.2993668119745556 C 2.597226132028953 -3.354738908928891 2.561007879113081 -3.4019382175273036 2.5113196273150002 -3.4304419270824433 C 2.461998272277338 -3.459697581056351 2.4029883186437013 -3.46790303535981 2.347556302583616 -3.4532135511038953 C 2.2921242865235234 -3.4385240668479655 2.244921979663868 -3.402172363513781 2.216561339355552 -3.3523309807732047 Z" fill="#1a76ad" transform="matrix(1,0,0,1,0,0)" fill-rule="evenodd"></path></g><g clip-path="url(#SvgjsClipPath10008f1a826f-115a-4f1d-9519-eb18bae778fb)"><path d=" M 1.8392707307674607 -4.075225681993754 C 1.7756862234034936 -4.011894234302759 1.7399434690398998 -3.925846331742407 1.7399434690398998 -3.836103020886642 C 1.7399434690398998 -3.746359710030891 1.7756862234034936 -3.6603118074705394 1.8392707307674607 -3.596980359779545 C 1.9713493068867978 -3.464952240487719 2.1854374768623237 -3.464952240487719 2.3175160529816607 -3.596980359779545 C 2.4495441722734874 -3.729058935898882 2.4495441722734874 -3.9431471058744156 2.3175160529816607 -4.075225681993754 C 2.254184605290674 -4.13881018935772 2.1681367027303224 -4.174552943721307 2.078393391874557 -4.174552943721307 C 1.988650081018799 -4.174552943721307 1.9026021784584473 -4.13881018935772 1.8392707307674607 -4.075225681993754 Z" fill="#33a4d8" transform="matrix(1,0,0,1,0,0)" fill-rule="evenodd"></path></g></g></g><defs><clipPath id="SvgjsClipPath1001"><path d=" M 0.4067454512845323 -5.50848785719656 h 5.25848785719656 v 5.25848785719656 h -5.25848785719656 Z"></path></clipPath><clipPath id="SvgjsClipPath10008f1a826f-115a-4f1d-9519-eb18bae778fb"><path d=" M 0.4067454512845323 -5.50848785719656 L 5.665233308481092 -5.50848785719656 L 5.665233308481092 -0.25 L 0.4067454512845323 -0.25 Z"></path></clipPath></defs></svg>